Patient4_TMGait_0pt7_01_left_13_EMG.mot
version=1
nRows=23
nColumns=33
inDegrees=no
endheader
time	1LAddLong	2LGlutMax	3LGlutMed	4LIliopsoas	5LSemiMemb	6LBicFemLong	7LRecFem	8LVastMed	9LVastLat	10LGasMed	11LTibAnt	12lTibPost	13LPeroneusLong	14LSol	15LExtDigLong	16LFlexDigLong	17RAddLong	18RGlutMax	19RGlutMed	20RIliopsoas	21RSemiMemb	22RBicFemLong	23RRecFem	24RVastMed	25RVastLat	26RGasMed	27RTibAnt	28RTibPost	29RPeroneusLong	30RSol	31RExtDigLong	32RFlexDigLong
15.72	0.004578	0.19104	0.31281	-0.000763	-0.004883	0.074463	-0.39856	0.008698	-0.028534	0.15533	-0.000458	0.013428	0.05127	0.16998	0.003204	0.33783	0.15762	-0.36392	-0.13519	0.29984	0.058746	0.084991	-0.52795	-0.043793	-0.089722	-0.00885	0.18021	0.001831	0.18143	-0.099182	-0.003052	0.004425
15.721	0.000763	0.19073	0.31586	-0.004272	-0.028229	0.050659	-0.40497	-0.007782	-0.018616	0.20386	0.006866	0.009308	0.046997	0.27863	-0.004272	-0.30487	0.069122	-0.38086	0.014191	0.17548	-0.08667	0.26047	-0.37796	0.18387	-0.15976	-0.003967	0.31158	-0.004883	0.011597	-0.069427	-0.001831	0.000305
15.722	0.00473	0.18799	0.39261	0.007935	-0.028992	-0.001831	-0.38315	-0.002441	-0.016937	0.4007	0.010529	0.008087	0.052948	0.3154	-0.007477	-0.13412	0.016327	-0.36896	0.045929	0.06897	-0.05127	0.40207	-0.25528	0.40741	-0.39505	-0.010834	0.37552	-0.001984	-0.022278	-0.026093	-0.005951	-0.010681
15.723	0.00473	0.1799	0.40848	0.017242	-0.053253	-0.035095	-0.34546	0.004883	-0.020142	0.075226	0.001068	0.002747	0.058899	0.31738	-0.009613	0.49439	-0.003815	-0.36209	-0.089111	0.028229	0.12848	0.30853	-0.13412	0.5928	-0.4512	-0.005646	0.14893	-0.006866	0.31448	-0.033569	-0.005493	-0.003815
15.724	0.010834	0.13779	0.28717	0.011444	0.012207	-0.05249	-0.32059	0.001221	-0.035095	0.10956	0.009308	0.000305	-0.0177	0.177	-0.015564	-0.067902	-0.006561	-0.36255	0.1329	0.026245	-0.031586	0.22568	-0.14221	0.6752	0.37231	-0.002441	0.11643	-0.007019	0.39902	-0.010529	-0.002747	-0.007172
15.725	0.018158	0.13168	0.24841	0.007477	0.076752	-0.078888	-0.31784	-0.005798	-0.025024	0.26764	0.010071	-0.036163	0.015106	0.057678	-0.011292	-0.041199	-0.043945	-0.35172	-0.00473	0.034637	-0.51834	0.26474	-0.023041	0.54611	0.70267	0.000458	0.092468	0.002136	-0.34561	0.063782	-0.000458	-0.007019
15.726	0.014648	0.077057	0.29923	0.000916	0.046997	0.003204	-0.3183	0.004425	-0.045013	0.29556	0.012665	0.15945	0.057068	-0.18188	0.021667	0.005951	-0.054626	-0.27725	-0.24841	-0.068817	-0.22995	0.17777	0.13016	0.31418	0.54443	-0.006104	0.06485	-0.001678	-0.54199	0.11673	0.00061	-0.010071
15.727	0.007782	0.072784	0.32089	-0.004883	0.029907	0.075378	-0.25238	0.001526	-0.058289	0.23438	0.006714	0.42145	0.11978	-0.22614	0.02533	-0.12375	-0.032654	-0.26321	-0.12161	-0.25238	0.40558	0.068359	0.074921	0.043488	0.14801	-0.010681	0.021362	-0.008392	-0.11688	0.072479	-0.000305	-0.004883
15.728	0.004425	0.056763	0.36957	-0.011597	-0.016785	0.009308	-0.26474	-0.003204	-0.045013	0.14679	-0.002136	-0.27313	0.12695	0.05249	0.037231	-0.1532	-0.06485	-0.34821	0.46631	-0.42053	0.76935	0.18463	0.058899	0	-0.36423	-0.007935	0.046234	-0.005341	-0.041809	-0.015259	-0.000458	-0.007782
15.729	0.004272	0.060272	0.3685	0.00061	-0.04364	-0.028839	-0.25436	0.004425	-0.035248	-0.022888	-0.001373	-0.14526	0.077515	0.30411	0.065918	-0.27679	-0.092163	-0.42435	0.46463	-0.28015	0.46234	0.30609	0.19608	-0.01236	-0.6665	-0.002441	0.027618	-0.001526	0.28015	-0.042877	-0.000458	-0.001526
15.73	0.006104	0.024872	0.37979	0.001678	-0.022736	-0.079346	-0.24078	-0.005646	-0.040894	-0.48202	-0.014954	-0.094757	0.046234	0.37994	0.050201	0.72723	-0.13397	-0.51788	0.21439	0.046387	0.12528	0.30991	-0.071716	0.37018	-0.67017	-0.007935	0.032959	-0.010376	0.14633	0.005188	0.000763	-0.002594
15.731	0.006409	-0.013123	0.36392	0.003052	-0.016022	-0.08194	-0.24277	-0.001068	-0.038605	-0.31113	-0.005798	0.14725	-0.075531	0.36896	0.040131	-0.11169	-0.11383	-0.55771	0.15076	0.29816	0.13489	0.27054	-0.53101	0.54382	-0.57617	-0.007782	0.084534	-0.000153	0.021973	0.021667	0.000458	0.001678
15.732	0.007782	-0.070801	0.37109	-0.005188	-0.008698	-0.062561	-0.21729	-0.000305	-0.039215	-0.16785	0.002136	-0.15869	-0.15869	0.5777	0.022583	0.48874	-0.077209	-0.63294	-0.059052	0.26779	0.19486	0.19989	-0.84503	0.18509	-0.54779	-0.005646	0.073853	0.011292	-0.15564	-0.070953	0.000305	0.000153
15.733	0.007935	-0.076447	0.36941	0.001221	0.020752	-0.052948	-0.19547	0.005188	-0.047913	-0.29205	0.002136	0.072632	-0.16861	1.0458	0.020142	-1.0878	0.020294	-0.64438	0.093994	0.13245	0.17746	0.055237	-0.39002	0.069733	-0.40726	-0.002136	0.11139	0.001526	-0.59876	-0.033417	-0.000458	-0.000916
15.734	0.009766	-0.099335	0.36957	0.003967	0.075226	-0.010681	-0.20416	0.006256	-0.047302	-0.35996	-0.010834	0.15182	-0.072479	0.87982	-0.010071	0.28351	0.015869	-0.63217	0.08255	0.068207	0.15656	-0.045624	-0.032501	0.1416	-0.11566	-0.016174	0.11902	-0.005951	-0.42267	-0.019989	0.000458	-0.007172
15.735	0.012512	-0.084229	0.36041	0.008087	0.042267	0.053101	-0.16724	-0.00473	-0.063019	-0.23132	0.013733	-0.018005	0.079041	0.46631	-0.072784	0.32867	0.045776	-0.42007	-0.058594	0.048981	-0.13702	-0.07782	0.15427	0.15778	0.022736	-0.016632	0.10529	-0.004425	0.14297	0.042267	0.000763	-0.009155
15.736	0.001373	-0.081635	0.35568	0.002441	-0.005646	0.055237	-0.16266	0.003662	-0.048523	0.38254	0.014496	0.044708	0.005035	0.31082	-0.12924	-0.25162	0.062561	-0.19943	0.085754	0.045929	-0.16739	-0.057526	0.089264	-0.005646	0.060272	-0.011139	0.035248	-0.001831	0.58151	-0.006256	0.000763	-0.001831
15.737	0.009613	-0.083618	0.38208	0.004578	-0.019531	0.014343	-0.17151	-0.002136	-0.025024	0.70053	0.02655	-0.1268	0.10483	-0.13992	-0.11795	0.57022	0.082092	-0.12009	0.38895	-0.000763	-0.20157	0.006409	-0.11032	-0.23773	-0.013123	-0.010376	0.028839	-0.001526	0.10849	0.006104	-0.002136	-0.005188
15.738	0.015411	-0.10941	0.39139	0.007782	-0.005035	-0.010681	-0.15747	0.000763	-0.020294	0.49408	-0.003967	0.052185	0.14267	-0.95123	-0.090179	0.39993	0.066528	-0.10468	-0.068817	-0.009766	-0.35248	0.075836	-0.28809	-0.3244	-0.011749	-0.007782	0.042114	-0.000916	0.064697	0.032196	0	-0.002136
15.739	0.003357	-0.094757	0.39368	0.018311	0.015564	0.02594	-0.13931	0.006561	-0.023346	0.25894	-0.02533	-0.062866	0.086212	-1.6045	-0.020905	-0.036469	0.059967	-0.075684	-0.11429	0.007935	-0.039673	0.10712	-0.13184	-0.34988	0.074921	-0.017395	0.029449	-0.001068	0.014954	-0.008545	-0.00061	-0.000305
15.74	0.011139	-0.097809	0.38544	0.016174	0.021362	0.045013	-0.097046	0.001678	-0.029755	0.2121	0.002136	0.034027	0.029907	-1.4304	0.008087	-0.46356	0.10071	-0.027618	-0.20874	-0.010834	0.14801	0.014191	-0.030365	-0.28183	0.075378	-0.012207	0.014496	-0.004272	0.050812	-0.034637	-0.005798	-0.009766
15.741	0.016174	-0.12375	0.3685	0.005798	0.04425	-0.098572	-0.091858	0.000153	-0.027161	-0.32318	0.002594	-0.083618	0.005951	-0.70725	-0.007324	-0.084686	0.088654	-0.12116	-0.19409	-0.091858	0.15396	-0.063782	-0.015106	-0.23514	-0.016937	-0.018311	0.028534	-0.002441	0.062561	-0.005646	-0.001526	-0.015717
15.742	0.023804	-0.15915	0.37186	0.007629	0.048828	-0.21851	-0.11002	-0.012207	-0.028076	-0.68634	0.008545	-0.007782	0.03006	-0.25162	-0.030212	-0.41809	0.067902	-0.34531	-0.43503	-0.24597	0.10147	-0.1152	-0.16861	-0.26916	-0.006561	-0.013733	0.036926	-0.00061	0.058594	-0.034332	-0.001678	-0.013733
